<svg version="1.1" viewBox="0.0 0.0 288.0 99.83989501312335" fill="none" stroke="none" stroke-linecap="square" stroke-miterlimit="10" xmlns:xlink="http://www.w3.org/1999/xlink" xmlns="http://www.w3.org/2000/svg"><clipPath id="p.0"><path d="m0 0l288.0 0l0 99.8399l-288.0 0l0 -99.8399z" clip-rule="nonzero"/></clipPath><g clip-path="url(#p.0)"><path fill="#000000" fill-opacity="0.0" d="m0 0l288.0 0l0 99.8399l-288.0 0z" fill-rule="evenodd"/><path shape-rendering="crispEdges" fill="#000000" d="m-0.20643045 -7.296588E-5l24.84252 0l0 21.590551l-24.84252 0l0 -21.590551z" fill-rule="nonzero"/><path shape-rendering="crispEdges" fill="#000000" d="m24.63609 -7.296588E-5l237.22835 0l0 21.590551l-237.22835 0l0 -21.590551z" fill-rule="nonzero"/><path shape-rendering="crispEdges" fill="#000000" d="m261.86444 -7.296588E-5l26.335968 0l0 21.590551l-26.335968 0l0 -21.590551z" fill-rule="nonzero"/><path shape-rendering="crispEdges" fill="#000000" d="m-0.20643045 21.590479l24.84252 0l0 13.057741l-24.84252 0l0 -13.057741z" fill-rule="nonzero"/><path shape-rendering="crispEdges" fill="#000000" d="m24.63609 21.590479l27.82677 0l0 13.057741l-27.82677 0l0 -13.057741z" fill-rule="nonzero"/><path shape-rendering="crispEdges" fill="#000000" d="m52.46286 21.590479l27.826775 0l0 13.057741l-27.826775 0l0 -13.057741z" fill-rule="nonzero"/><path shape-rendering="crispEdges" fill="#000000" d="m80.289635 21.590479l36.314957 0l0 13.057741l-36.314957 0l0 -13.057741z" fill-rule="nonzero"/><path shape-rendering="crispEdges" fill="#000000" d="m116.60459 21.590479l36.314964 0l0 13.057741l-36.314964 0l0 -13.057741z" fill-rule="nonzero"/><path shape-rendering="crispEdges" fill="#000000" d="m152.91956 21.590479l36.314957 0l0 13.057741l-36.314957 0l0 -13.057741z" fill-rule="nonzero"/><path shape-rendering="crispEdges" fill="#000000" d="m189.23451 21.590479l36.314957 0l0 13.057741l-36.314957 0l0 -13.057741z" fill-rule="nonzero"/><path shape-rendering="crispEdges" fill="#000000" d="m225.54947 21.590479l36.314972 0l0 13.057741l-36.314972 0l0 -13.057741z" fill-rule="nonzero"/><path shape-rendering="crispEdges" fill="#000000" d="m261.86444 21.590479l26.335968 0l0 13.057741l-26.335968 0l0 -13.057741z" fill-rule="nonzero"/><path shape-rendering="crispEdges" fill="#000000" d="m-0.20643045 34.64822l24.84252 0l0 28.503937l-24.84252 0l0 -28.503937z" fill-rule="nonzero"/><path shape-rendering="crispEdges" fill="#000000" d="m24.63609 34.64822l27.82677 0l0 28.503937l-27.82677 0l0 -28.503937z" fill-rule="nonzero"/><path shape-rendering="crispEdges" fill="#000000" d="m52.46286 34.64822l27.826775 0l0 28.503937l-27.826775 0l0 -28.503937z" fill-rule="nonzero"/><path shape-rendering="crispEdges" fill="#000000" d="m80.289635 34.64822l36.314957 0l0 28.503937l-36.314957 0l0 -28.503937z" fill-rule="nonzero"/><path shape-rendering="crispEdges" fill="#000000" d="m116.60459 34.64822l36.314964 0l0 28.503937l-36.314964 0l0 -28.503937z" fill-rule="nonzero"/><path shape-rendering="crispEdges" fill="#000000" d="m152.91956 34.64822l36.314957 0l0 28.503937l-36.314957 0l0 -28.503937z" fill-rule="nonzero"/><path shape-rendering="crispEdges" fill="#000000" d="m189.23451 34.64822l36.314957 0l0 28.503937l-36.314957 0l0 -28.503937z" fill-rule="nonzero"/><path shape-rendering="crispEdges" fill="#000000" d="m225.54947 34.64822l36.314972 0l0 28.503937l-36.314972 0l0 -28.503937z" fill-rule="nonzero"/><path shape-rendering="crispEdges" fill="#000000" d="m261.86444 34.64822l26.335968 0l0 28.503937l-26.335968 0l0 -28.503937z" fill-rule="nonzero"/><path stroke="#000000" stroke-width="1.0" stroke-linecap="butt" d="m-0.20643045 -0.49876064l0 91.10761" fill-rule="nonzero"/><path stroke="#ffffff" stroke-width="1.0" stroke-linecap="butt" d="m24.63609 -0.49876064l0 63.15223" fill-rule="nonzero"/><path stroke="#000000" stroke-width="1.0" stroke-linecap="butt" d="m24.63609 62.65347l0 27.95538" fill-rule="nonzero"/><path stroke="#ffffff" stroke-width="1.0" stroke-linecap="butt" d="m52.46286 21.091791l0 41.561676" fill-rule="nonzero"/><path stroke="#000000" stroke-width="1.0" stroke-linecap="butt" d="m52.46286 62.65347l0 27.95538" fill-rule="nonzero"/><path stroke="#ffffff" stroke-width="1.0" stroke-linecap="butt" d="m80.289635 21.091791l0 41.561676" fill-rule="nonzero"/><path stroke="#000000" stroke-width="1.0" stroke-linecap="butt" d="m80.289635 62.65347l0 27.95538" fill-rule="nonzero"/><path stroke="#ffffff" stroke-width="1.0" stroke-linecap="butt" d="m116.60459 21.091791l0 41.561676" fill-rule="nonzero"/><path stroke="#000000" stroke-width="1.0" stroke-linecap="butt" d="m116.60459 62.65347l0 27.95538" fill-rule="nonzero"/><path stroke="#ffffff" stroke-width="1.0" stroke-linecap="butt" d="m152.91956 21.091791l0 41.561676" fill-rule="nonzero"/><path stroke="#000000" stroke-width="1.0" stroke-linecap="butt" d="m152.91956 62.65347l0 27.95538" fill-rule="nonzero"/><path stroke="#ffffff" stroke-width="1.0" stroke-linecap="butt" d="m189.23451 21.091791l0 41.561676" fill-rule="nonzero"/><path stroke="#000000" stroke-width="1.0" stroke-linecap="butt" d="m189.23451 62.65347l0 27.95538" fill-rule="nonzero"/><path stroke="#ffffff" stroke-width="1.0" stroke-linecap="butt" d="m225.54947 21.091791l0 41.561676" fill-rule="nonzero"/><path stroke="#000000" stroke-width="1.0" stroke-linecap="butt" d="m225.54947 62.65347l0 27.95538" fill-rule="nonzero"/><path stroke="#ffffff" stroke-width="1.0" stroke-linecap="butt" d="m261.86444 -0.49876064l0 63.15223" fill-rule="nonzero"/><path stroke="#000000" stroke-width="1.0" stroke-linecap="butt" d="m261.86444 62.65347l0 27.95538" fill-rule="nonzero"/><path stroke="#000000" stroke-width="1.0" stroke-linecap="butt" d="m288.2004 -0.49876064l0 91.10761" fill-rule="nonzero"/><path stroke="#000000" stroke-width="1.0" stroke-linecap="butt" d="m-0.7051181 -7.296588E-5l289.40417 0" fill-rule="nonzero"/><path stroke="#ffffff" stroke-width="1.0" stroke-linecap="butt" d="m-0.7051181 21.590479l289.40417 0" fill-rule="nonzero"/><path stroke="#ffffff" stroke-width="1.0" stroke-linecap="butt" d="m-0.7051181 34.64822l289.40417 0" fill-rule="nonzero"/><path stroke="#000000" stroke-width="1.0" stroke-linecap="butt" d="m-0.7051181 63.152157l289.40417 0" fill-rule="nonzero"/><path stroke="#000000" stroke-width="1.0" stroke-linecap="butt" d="m-0.7051181 90.11016l289.40417 0" fill-rule="nonzero"/><path fill="#ffffff" d="m1.9850168 15.595202l0.203125 -10.796875l1.484375 0l1.890625 8.75l1.921875 -8.75l1.46875 0l0.203125 10.796875l-1.21875 0l-0.109375 -7.8437495l-1.828125 7.8437495l-0.859375 0l-1.8125 -7.8437495l-0.109375 7.8437495l-1.234375 0zm11.374649 0.125q-0.9375 0 -1.5625 -0.40625q-0.609375 -0.40625 -0.9375 -1.109375q-0.3125 -0.703125 -0.375 -1.640625l1.34375 -0.359375q0.03125 0.578125 0.171875 1.109375q0.140625 0.53125 0.453125 0.875q0.328125 0.34375 0.90625 0.34375q0.578125 0 0.875 -0.328125q0.3125 -0.328125 0.3125 -0.9375q0 -0.734375 -0.34375 -1.171875q-0.328125 -0.453125 -0.828125 -0.90625l-1.8125 -1.609375q-0.546875 -0.46875 -0.796875 -1.015625q-0.25 -0.546875 -0.25 -1.3593745q0 -1.1875 0.671875 -1.84375q0.6875 -0.65625 1.859375 -0.65625q0.640625 0 1.125 0.171875q0.484375 0.15625 0.8125 0.515625q0.328125 0.34375 0.515625 0.875q0.203125 0.515625 0.265625 1.21875l-1.28125 0.359375q-0.03125 -0.546875 -0.15625 -0.984375q-0.125 -0.453125 -0.421875 -0.71875q-0.296875 -0.28125 -0.859375 -0.28125q-0.5625 0 -0.875 0.3125q-0.3125 0.296875 -0.3125 0.875q0 0.5 0.15625 0.828125q0.171875 0.31249952 0.546875 0.6406245l1.828125 1.59375q0.609375 0.546875 1.078125 1.28125q0.46875095 0.734375 0.46875095 1.75q0 0.796875 -0.34375095 1.375q-0.328125 0.578125 -0.90625 0.890625q-0.578125 0.3125 -1.328125 0.3125zm3.75731 -0.125l0 -10.796875l2.46875 0q0.734375 0 1.265625 0.171875q0.546875 0.15625 0.90625 0.484375q0.359375 0.328125 0.53125 0.84375q0.1875 0.515625 0.1875 1.203125q0 0.6718745 -0.171875 1.1562495q-0.171875 0.484375 -0.515625 0.765625q-0.328125 0.28125 -0.859375 0.359375q0.640625 0.140625 1.046875 0.5q0.40625 0.359375 0.59375 0.90625q0.1875 0.546875 0.1875 1.328125q0 0.6875 -0.15625 1.265625q-0.15625 0.578125 -0.5 0.984375q-0.34375 0.390625 -0.875 0.609375q-0.515625 0.21875 -1.234375 0.21875l-2.875 0zm1.5 -1.078125l1.015625 0q1.015625 0 1.34375 -0.46875q0.34375 -0.484375 0.34375 -1.53125q0 -0.6875 -0.1875 -1.140625q-0.171875 -0.453125 -0.5625 -0.6875q-0.390625 -0.234375 -1.0625 -0.234375l-0.890625 0l0 4.0625zm0 -5.21875l0.890625 0q0.640625 0 1.0 -0.171875q0.359375 -0.1875 0.5 -0.578125q0.15625 -0.40625 0.15625 -1.0468745q0 -0.75 -0.234375 -1.078125q-0.21875 -0.328125 -0.703125 -0.40625q-0.46875 -0.09375 -1.25 -0.09375l-0.359375 0l0 3.3749995z" fill-rule="nonzero"/><path fill="#ffffff" d="m266.5865 15.595202l0 -10.796875l1.5 0l0 9.71875l2.765625 0l0 1.078125l-4.265625 0zm7.838135 0.125q-0.9375 0 -1.5625 -0.40625q-0.609375 -0.40625 -0.9375 -1.109375q-0.3125 -0.703125 -0.375 -1.640625l1.34375 -0.359375q0.03125 0.578125 0.171875 1.109375q0.140625 0.53125 0.453125 0.875q0.328125 0.34375 0.90625 0.34375q0.578125 0 0.875 -0.328125q0.3125 -0.328125 0.3125 -0.9375q0 -0.734375 -0.34375 -1.171875q-0.328125 -0.453125 -0.828125 -0.90625l-1.8125 -1.609375q-0.546875 -0.46875 -0.796875 -1.015625q-0.25 -0.546875 -0.25 -1.3593745q0 -1.1875 0.671875 -1.84375q0.6875 -0.65625 1.859375 -0.65625q0.640625 0 1.125 0.171875q0.484375 0.15625 0.8125 0.515625q0.328125 0.34375 0.515625 0.875q0.203125 0.515625 0.265625 1.21875l-1.28125 0.359375q-0.03125 -0.546875 -0.15625 -0.984375q-0.125 -0.453125 -0.421875 -0.71875q-0.296875 -0.28125 -0.859375 -0.28125q-0.5625 0 -0.875 0.3125q-0.3125 0.296875 -0.3125 0.875q0 0.5 0.15625 0.828125q0.171875 0.31249952 0.546875 0.6406245l1.828125 1.59375q0.609375 0.546875 1.078125 1.28125q0.46875 0.734375 0.46875 1.75q0 0.796875 -0.34375 1.375q-0.328125 0.578125 -0.90625 0.890625q-0.578125 0.3125 -1.328125 0.3125zm3.7572937 -0.125l0 -10.796875l2.46875 0q0.734375 0 1.265625 0.171875q0.546875 0.15625 0.90625 0.484375q0.359375 0.328125 0.53125 0.84375q0.1875 0.515625 0.1875 1.203125q0 0.6718745 -0.171875 1.1562495q-0.171875 0.484375 -0.515625 0.765625q-0.328125 0.28125 -0.859375 0.359375q0.640625 0.140625 1.046875 0.5q0.40625 0.359375 0.59375 0.90625q0.1875 0.546875 0.1875 1.328125q0 0.6875 -0.15625 1.265625q-0.15625 0.578125 -0.5 0.984375q-0.34375 0.390625 -0.875 0.609375q-0.515625 0.21875 -1.234375 0.21875l-2.875 0zm1.5 -1.078125l1.015625 0q1.015625 0 1.34375 -0.46875q0.34375 -0.484375 0.34375 -1.53125q0 -0.6875 -0.1875 -1.140625q-0.171875 -0.453125 -0.5625 -0.6875q-0.390625 -0.234375 -1.0625 -0.234375l-0.890625 0l0 4.0625zm0 -5.21875l0.890625 0q0.640625 0 1.0 -0.171875q0.359375 -0.1875 0.5 -0.578125q0.15625 -0.40625 0.15625 -1.0468745q0 -0.75 -0.234375 -1.078125q-0.21875 -0.328125 -0.703125 -0.40625q-0.46875 -0.09375 -1.25 -0.09375l-0.359375 0l0 3.3749995z" fill-rule="nonzero"/><path fill="#00ffff" d="m7.6314325 30.51935l0 -0.5l1.375 -2.140625q0.15625 -0.234375 0.28125 -0.4375q0.140625 -0.21875 0.21875 -0.4375q0.078125 -0.234375 0.078125 -0.53125q0 -0.375 -0.125 -0.59375q-0.109375 -0.21875 -0.40625 -0.21875q-0.25 0 -0.390625 0.140625q-0.140625 0.140625 -0.203125 0.375q-0.046875 0.21875 -0.046875 0.484375l0 0.171875l-0.71875 0l0 -0.1875q0 -0.484375 0.125 -0.828125q0.140625 -0.34375 0.421875 -0.53125q0.296875 -0.203125 0.78125 -0.203125q0.640625 0 0.953125 0.375q0.328125 0.359375 0.328125 1.015625q0 0.34375 -0.078125 0.609375q-0.078125 0.25 -0.21875 0.484375q-0.125 0.21875 -0.296875 0.46875l-1.234375 1.890625l1.703125 0l0 0.59375l-2.546875 0zm4.541031 0.046875q-0.5 0 -0.78125 -0.171875q-0.28125 -0.1875 -0.40625 -0.546875q-0.125 -0.359375 -0.125 -0.84375l0.71875 0q0 0.25 0.03125 0.484375q0.046875 0.21875 0.171875 0.375q0.125 0.140625 0.390625 0.140625q0.296875 0 0.421875 -0.171875q0.125 -0.171875 0.15625 -0.453125q0.046875 -0.296875 0.046875 -0.65625q0 -0.359375 -0.046875 -0.609375q-0.046875 -0.265625 -0.171875 -0.40625q-0.125 -0.140625 -0.390625 -0.140625q-0.21875 0 -0.375 0.140625q-0.15625 0.140625 -0.234375 0.3125l-0.59375 0l0 -2.890625l2.3125 0l0 0.71875l-1.671875 0l-0.046875 1.484375q0.140625 -0.140625 0.328125 -0.21875q0.203125 -0.078125 0.453125 -0.078125q0.4375 0 0.6875 0.203125q0.25 0.203125 0.34375 0.5625q0.109375 0.359375 0.109375 0.828125q0 0.40625 -0.0625 0.765625q-0.0625 0.359375 -0.21875 0.625q-0.140625 0.265625 -0.40625 0.40625q-0.25 0.140625 -0.640625 0.140625zm3.24646 0.015625q-0.453125 0 -0.75 -0.234375q-0.296875 -0.234375 -0.4375 -0.640625q-0.125 -0.40625 -0.125 -0.890625l0 -1.828125q0 -0.515625 0.109375 -0.953125q0.125 -0.4375 0.40625 -0.6875q0.296875 -0.265625 0.796875 -0.265625q0.42187595 0 0.70312595 0.15625q0.296875 0.15625 0.453125 0.453125q0.15625 0.28125 0.171875 0.703125q0 0.015625 0 0.046875q0 0.015625 0 0.03125l-0.71875 0q0 -0.390625 -0.125 -0.59375q-0.12500095 -0.21875 -0.48437595 -0.21875q-0.1875 0 -0.328125 0.125q-0.140625 0.125 -0.21875 0.390625q-0.0625 0.25 -0.0625 0.640625l0 0.828125q0.109375 -0.171875 0.296875 -0.265625q0.203125 -0.109375 0.5 -0.109375q0.43750095 0 0.68750095 0.1875q0.25 0.1875 0.359375 0.546875q0.109375 0.34375 0.109375 0.8125q0 0.484375 -0.140625 0.890625q-0.125 0.40625 -0.421875 0.640625q-0.28125 0.234375 -0.78125095 0.234375zm0 -0.59375q0.25 0 0.37500095 -0.140625q0.140625 -0.140625 0.1875 -0.359375q0.0625 -0.234375 0.0625 -0.5q0 -0.3125 -0.03125 -0.578125q-0.03125 -0.28125 -0.15625 -0.4375q-0.12500095 -0.171875 -0.43750095 -0.171875q-0.140625 0 -0.265625 0.0625q-0.109375 0.046875 -0.203125 0.140625q-0.078125 0.078125 -0.140625 0.171875l0 0.796875q0 0.28125 0.0625 0.515625q0.0625 0.21875 0.1875 0.359375q0.140625 0.140625 0.359375 0.140625z" fill-rule="nonzero"/><path fill="#00ffff" d="m35.120632 30.51935l0 -4.453125q-0.015625 0 -0.15625 0.03125q-0.140625 0.03125 -0.328125 0.078125q-0.171875 0.03125 -0.3125 0.0625q-0.140625 0.015625 -0.140625 0.015625l0 -0.546875q0.109375 -0.015625 0.25 -0.0625q0.15625 -0.046875 0.3125 -0.109375q0.15625 -0.078125 0.296875 -0.171875q0.15625 -0.109375 0.25 -0.234375l0.53125 0l0 5.390625l-0.703125 0zm1.760849 0l0 -0.5l1.375 -2.140625q0.15625 -0.234375 0.28125 -0.4375q0.140625 -0.21875 0.21875 -0.4375q0.078125 -0.234375 0.078125 -0.53125q0 -0.375 -0.125 -0.59375q-0.109375 -0.21875 -0.40625 -0.21875q-0.25 0 -0.390625 0.140625q-0.140625 0.140625 -0.203125 0.375q-0.046875 0.21875 -0.046875 0.484375l0 0.171875l-0.71875 0l0 -0.1875q0 -0.484375 0.125 -0.828125q0.140625 -0.34375 0.421875 -0.53125q0.296875 -0.203125 0.78125 -0.203125q0.640625 0 0.953125 0.375q0.328125 0.359375 0.328125 1.015625q0 0.34375 -0.078125 0.609375q-0.078125 0.25 -0.21875 0.484375q-0.125 0.21875 -0.296875 0.46875l-1.234375 1.890625l1.703125 0l0 0.59375l-2.546875 0zm4.572281 0.0625q-0.484375 0 -0.78125 -0.1875q-0.28125 -0.203125 -0.421875 -0.546875q-0.125 -0.359375 -0.125 -0.84375q0 -0.28125 0.046875 -0.484375q0.046875 -0.203125 0.140625 -0.359375q0.09375 -0.15625 0.21875 -0.265625q0.125 -0.125 0.265625 -0.21875q-0.265625 -0.171875 -0.4375 -0.453125q-0.15625 -0.296875 -0.15625 -0.75q0 -0.421875 0.125 -0.734375q0.140625 -0.3125 0.421875 -0.484375q0.28125 -0.171875 0.703125 -0.171875q0.4375 0 0.71875 0.171875q0.28125 0.171875 0.40625 0.484375q0.140625 0.3125 0.140625 0.734375q0 0.453125 -0.171875 0.75q-0.15625 0.28125 -0.4375 0.453125q0.15625 0.09375 0.265625 0.21875q0.125 0.109375 0.21875 0.265625q0.09375 0.15625 0.140625 0.359375q0.046875 0.203125 0.046875 0.484375q0 0.484375 -0.125 0.84375q-0.125 0.34375 -0.421875 0.546875q-0.28125 0.1875 -0.78125 0.1875zm0 -0.5625q0.265625 0 0.40625 -0.125q0.140625 -0.140625 0.1875 -0.359375q0.046875 -0.234375 0.046875 -0.515625q0 -0.25 -0.0625 -0.46875q-0.046875 -0.234375 -0.1875 -0.375q-0.140625 -0.140625 -0.390625 -0.140625q-0.234375 0 -0.390625 0.140625q-0.140625 0.140625 -0.203125 0.359375q-0.046875 0.21875 -0.046875 0.484375q0 0.28125 0.046875 0.515625q0.0625 0.21875 0.203125 0.359375q0.140625 0.125 0.390625 0.125zm0 -2.671875q0.234375 0 0.34375 -0.125q0.125 -0.140625 0.171875 -0.34375q0.046875 -0.21875 0.046875 -0.453125q0 -0.328125 -0.125 -0.5625q-0.109375 -0.234375 -0.4375 -0.234375q-0.3125 0 -0.4375 0.234375q-0.125 0.234375 -0.125 0.5625q0 0.234375 0.046875 0.453125q0.046875 0.203125 0.171875 0.34375q0.125 0.125 0.34375 0.125z" fill-rule="nonzero"/><path fill="#00ffff" d="m64.797874 30.58185q-0.453125 0 -0.75 -0.234375q-0.2968712 -0.234375 -0.4374962 -0.640625q-0.125 -0.40625 -0.125 -0.890625l0 -1.828125q0 -0.515625 0.109375 -0.953125q0.125 -0.4375 0.4062462 -0.6875q0.296875 -0.265625 0.796875 -0.265625q0.421875 0 0.703125 0.15625q0.296875 0.15625 0.453125 0.453125q0.15625 0.28125 0.171875 0.703125q0 0.015625 0 0.046875q0 0.015625 0 0.03125l-0.71875 0q0 -0.390625 -0.125 -0.59375q-0.125 -0.21875 -0.484375 -0.21875q-0.1875 0 -0.328125 0.125q-0.140625 0.125 -0.21875 0.390625q-0.0625 0.25 -0.0625 0.640625l0 0.828125q0.109375 -0.171875 0.296875 -0.265625q0.203125 -0.109375 0.5 -0.109375q0.4375 0 0.6875 0.1875q0.25 0.1875 0.359375 0.546875q0.109375 0.34375 0.109375 0.8125q0 0.484375 -0.140625 0.890625q-0.125 0.40625 -0.421875 0.640625q-0.28125 0.234375 -0.78125 0.234375zm0 -0.59375q0.25 0 0.375 -0.140625q0.140625 -0.140625 0.1875 -0.359375q0.0625 -0.234375 0.0625 -0.5q0 -0.3125 -0.03125 -0.578125q-0.03125 -0.28125 -0.15625 -0.4375q-0.125 -0.171875 -0.4375 -0.171875q-0.140625 0 -0.265625 0.0625q-0.109375 0.046875 -0.203125 0.140625q-0.078125 0.078125 -0.140625 0.171875l0 0.796875q0 0.28125 0.0625 0.515625q0.0625 0.21875 0.1875 0.359375q0.140625 0.140625 0.359375 0.140625zm3.473053 0.53125l0 -1.4375l-1.5625 0l0 -0.75l1.40625 -3.203125l0.84375 0l0 3.3125l0.59375 0l0 0.640625l-0.59375 0l0 1.4375l-0.6875 0zm-0.875 -2.078125l0.875 0l0 -2.453125l-0.875 2.453125z" fill-rule="nonzero"/><path fill="#00ffff" d="m96.84692 30.58185q-0.4375 0 -0.734375 -0.15625q-0.28125 -0.171875 -0.4375 -0.484375q-0.140625 -0.328125 -0.140625 -0.75l0 -0.171875l0.703125 0q0 0.015625 0 0.046875q0 0.03125 0 0.0625q0.015625 0.25 0.0625 0.4375q0.046875 0.1875 0.171875 0.3125q0.140625 0.109375 0.375 0.109375q0.265625 0 0.390625 -0.125q0.140625 -0.125 0.1875 -0.34375q0.046875 -0.234375 0.046875 -0.53125q0 -0.421875 -0.15625 -0.6875q-0.15625 -0.265625 -0.546875 -0.296875q-0.015625 0 -0.046875 0q-0.03125 0 -0.0625 0l0 -0.71875q0.03125 0 0.046875 0q0.03125 0 0.046875 0q0.390625 -0.015625 0.546875 -0.203125q0.171875 -0.1875 0.171875 -0.609375q0 -0.375 -0.125 -0.59375q-0.125 -0.21875 -0.484375 -0.21875q-0.375 0 -0.5 0.25q-0.109375 0.234375 -0.125 0.609375q0 0.03125 0 0.0625q0 0.03125 0 0.0625l-0.703125 0l0 -0.1875q0 -0.4375 0.140625 -0.734375q0.15625 -0.3125 0.453125 -0.46875q0.296875 -0.171875 0.734375 -0.171875q0.4375 0 0.734375 0.171875q0.296875 0.15625 0.4375 0.46875q0.15625 0.3125 0.15625 0.75q0 0.484375 -0.21875 0.78125q-0.203125 0.28125 -0.5625 0.390625q0.25 0.078125 0.421875 0.265625q0.171875 0.171875 0.265625 0.453125q0.09375 0.265625 0.09375 0.625q0 0.484375 -0.140625 0.84375q-0.125 0.359375 -0.421875 0.5625q-0.296875 0.1875 -0.78125 0.1875zm1.8624878 -0.0625l0 -0.5l1.375 -2.140625q0.15625 -0.234375 0.28125 -0.4375q0.140625 -0.21875 0.21875 -0.4375q0.078125 -0.234375 0.078125 -0.53125q0 -0.375 -0.125 -0.59375q-0.109375 -0.21875 -0.40625 -0.21875q-0.25 0 -0.390625 0.140625q-0.140625 0.140625 -0.203125 0.375q-0.046875 0.21875 -0.046875 0.484375l0 0.171875l-0.71875 0l0 -0.1875q0 -0.484375 0.125 -0.828125q0.140625 -0.34375 0.421875 -0.53125q0.296875 -0.203125 0.78125 -0.203125q0.640625 0 0.953125 0.375q0.328125 0.359375 0.328125 1.015625q0 0.34375 -0.078125 0.609375q-0.078125 0.25 -0.21875 0.484375q-0.125 0.21875 -0.296875 0.46875l-1.234375 1.890625l1.703125 0l0 0.59375l-2.546875 0z" fill-rule="nonzero"/><path fill="#00ffff" d="m132.91075 30.51935l0 -4.453125q-0.015625 0 -0.15625 0.03125q-0.140625 0.03125 -0.328125 0.078125q-0.171875 0.03125 -0.3125 0.0625q-0.140625 0.015625 -0.140625 0.015625l0 -0.546875q0.109375 -0.015625 0.25 -0.0625q0.15625 -0.046875 0.3125 -0.109375q0.15625 -0.078125 0.296875 -0.171875q0.15625 -0.109375 0.25 -0.234375l0.53125 0l0 5.390625l-0.703125 0zm3.198349 0.0625q-0.453125 0 -0.75 -0.234375q-0.296875 -0.234375 -0.4375 -0.640625q-0.125 -0.40625 -0.125 -0.890625l0 -1.828125q0 -0.515625 0.109375 -0.953125q0.125 -0.4375 0.40625 -0.6875q0.296875 -0.265625 0.796875 -0.265625q0.421875 0 0.703125 0.15625q0.296875 0.15625 0.453125 0.453125q0.15625 0.28125 0.171875 0.703125q0 0.015625 0 0.046875q0 0.015625 0 0.03125l-0.71875 0q0 -0.390625 -0.125 -0.59375q-0.125 -0.21875 -0.484375 -0.21875q-0.1875 0 -0.328125 0.125q-0.140625 0.125 -0.21875 0.390625q-0.0625 0.25 -0.0625 0.640625l0 0.828125q0.109375 -0.171875 0.296875 -0.265625q0.203125 -0.109375 0.5 -0.109375q0.4375 0 0.6875 0.1875q0.25 0.1875 0.359375 0.546875q0.109375 0.34375 0.109375 0.8125q0 0.484375 -0.140625 0.890625q-0.125 0.40625 -0.421875 0.640625q-0.28125 0.234375 -0.78125 0.234375zm0 -0.59375q0.25 0 0.375 -0.140625q0.140625 -0.140625 0.1875 -0.359375q0.0625 -0.234375 0.0625 -0.5q0 -0.3125 -0.03125 -0.578125q-0.03125 -0.28125 -0.15625 -0.4375q-0.125 -0.171875 -0.4375 -0.171875q-0.140625 0 -0.265625 0.0625q-0.109375 0.046875 -0.203125 0.140625q-0.078125 0.078125 -0.140625 0.171875l0 0.796875q0 0.28125 0.0625 0.515625q0.0625 0.21875 0.1875 0.359375q0.140625 0.140625 0.359375 0.140625z" fill-rule="nonzero"/><path fill="#00ffff" d="m171.07257 30.58185q-0.484375 0 -0.78125 -0.1875q-0.28125 -0.203125 -0.421875 -0.546875q-0.125 -0.359375 -0.125 -0.84375q0 -0.28125 0.046875 -0.484375q0.046875 -0.203125 0.140625 -0.359375q0.09375 -0.15625 0.21875 -0.265625q0.125 -0.125 0.265625 -0.21875q-0.265625 -0.171875 -0.4375 -0.453125q-0.15625 -0.296875 -0.15625 -0.75q0 -0.421875 0.125 -0.734375q0.140625 -0.3125 0.421875 -0.484375q0.28125 -0.171875 0.703125 -0.171875q0.4375 0 0.71875 0.171875q0.28125 0.171875 0.40625 0.484375q0.140625 0.3125 0.140625 0.734375q0 0.453125 -0.171875 0.75q-0.15625 0.28125 -0.4375 0.453125q0.15625 0.09375 0.265625 0.21875q0.125 0.109375 0.21875 0.265625q0.09375 0.15625 0.140625 0.359375q0.046875 0.203125 0.046875 0.484375q0 0.484375 -0.125 0.84375q-0.125 0.34375 -0.421875 0.546875q-0.28125 0.1875 -0.78125 0.1875zm0 -0.5625q0.265625 0 0.40625 -0.125q0.140625 -0.140625 0.1875 -0.359375q0.046875 -0.234375 0.046875 -0.515625q0 -0.25 -0.0625 -0.46875q-0.046875 -0.234375 -0.1875 -0.375q-0.140625 -0.140625 -0.390625 -0.140625q-0.234375 0 -0.390625 0.140625q-0.140625 0.140625 -0.203125 0.359375q-0.046875 0.21875 -0.046875 0.484375q0 0.28125 0.046875 0.515625q0.0625 0.21875 0.203125 0.359375q0.140625 0.125 0.390625 0.125zm0 -2.671875q0.234375 0 0.34375 -0.125q0.125 -0.140625 0.171875 -0.34375q0.046875 -0.21875 0.046875 -0.453125q0 -0.328125 -0.125 -0.5625q-0.109375 -0.234375 -0.4375 -0.234375q-0.3125 0 -0.4375 0.234375q-0.125 0.234375 -0.125 0.5625q0 0.234375 0.046875 0.453125q0.046875 0.203125 0.171875 0.34375q0.125 0.125 0.34375 0.125z" fill-rule="nonzero"/><path fill="#00ffff" d="m207.61266 30.51935l0 -1.4375l-1.5625 0l0 -0.75l1.40625 -3.203125l0.84375 0l0 3.3125l0.59375 0l0 0.640625l-0.59375 0l0 1.4375l-0.6875 0zm-0.875 -2.078125l0.875 0l0 -2.453125l-0.875 2.453125z" fill-rule="nonzero"/><path fill="#00ffff" d="m242.38176 30.51935l0 -0.5l1.375 -2.140625q0.15625 -0.234375 0.28125 -0.4375q0.140625 -0.21875 0.21875 -0.4375q0.078125 -0.234375 0.078125 -0.53125q0 -0.375 -0.125 -0.59375q-0.109375 -0.21875 -0.40625 -0.21875q-0.25 0 -0.390625 0.140625q-0.140625 0.140625 -0.203125 0.375q-0.046875 0.21875 -0.046875 0.484375l0 0.171875l-0.71875 0l0 -0.1875q0 -0.484375 0.125 -0.828125q0.140625 -0.34375 0.421875 -0.53125q0.296875 -0.203125 0.78125 -0.203125q0.640625 0 0.953125 0.375q0.328125 0.359375 0.328125 1.015625q0 0.34375 -0.078125 0.609375q-0.078125 0.25 -0.21875 0.484375q-0.125 0.21875 -0.296875 0.46875l-1.234375 1.890625l1.703125 0l0 0.59375l-2.546875 0z" fill-rule="nonzero"/><path fill="#00ffff" d="m274.8551 30.51935l0 -4.453125q-0.015625 0 -0.15625 0.03125q-0.140625 0.03125 -0.328125 0.078125q-0.171875 0.03125 -0.3125 0.0625q-0.140625 0.015625 -0.140625 0.015625l0 -0.546875q0.109375 -0.015625 0.25 -0.0625q0.15625 -0.046875 0.3125 -0.109375q0.15625 -0.078125 0.296875 -0.171875q0.15625 -0.109375 0.25 -0.234375l0.53125 0l0 5.390625l-0.703125 0z" fill-rule="nonzero"/><path fill="#ffffff" d="m7.3620462 53.700188l0 -1.015625l2.75 -4.28125q0.296875 -0.46875 0.5625 -0.875q0.265625 -0.421875 0.421875 -0.875q0.171875 -0.46875 0.171875 -1.0625q0 -0.75 -0.25 -1.171875q-0.234375 -0.4375 -0.828125 -0.4375q-0.515625 0 -0.796875 0.28125q-0.265625 0.28125 -0.375 0.734375q-0.109375 0.453125 -0.109375 0.96875l0 0.359375l-1.421875 0l0 -0.375q0 -0.96875 0.25 -1.65625q0.265625 -0.703125 0.84375 -1.09375q0.578125 -0.390625 1.546875 -0.390625q1.296875 0 1.9375 0.75q0.640625 0.734375 0.640625 2.03125q0 0.703125 -0.171875 1.21875q-0.15625 0.515625 -0.421875 0.96875q-0.265625 0.453125 -0.59375 0.9375l-2.484375 3.78125l3.421875 0l0 1.203125l-5.09375 0z" fill-rule="nonzero"/><path fill="#ffffff" d="m15.40474 48.778313q-0.640625 0 -1.03125 -0.25q-0.390625 -0.265625 -0.578125 -0.734375q-0.171875 -0.484375 -0.171875 -1.125q0 -0.359375 0.0625 -0.625q0.0625 -0.28125 0.1875 -0.484375q0.125 -0.21875 0.28125 -0.375q0.171875 -0.15625 0.359375 -0.28125q-0.359375 -0.234375 -0.578125 -0.609375q-0.21875 -0.390625 -0.21875 -0.984375q0 -0.578125 0.171875 -0.984375q0.1875 -0.421875 0.5625 -0.640625q0.375 -0.234375 0.953125 -0.234375q0.57812595 0 0.93750095 0.234375q0.375 0.21875 0.546875 0.640625q0.1875 0.40625 0.1875 0.984375q0 0.59375 -0.21875 0.984375q-0.21875 0.375 -0.578125 0.609375q0.1875 0.125 0.34375 0.28125q0.171875 0.15625 0.296875 0.375q0.125 0.203125 0.1875 0.484375q0.0625 0.265625 0.0625 0.625q0 0.640625 -0.171875 1.125q-0.171875 0.46875 -0.5625 0.734375q-0.390625 0.25 -1.031251 0.25zm0 -0.75q0.34375 0 0.53125095 -0.171875q0.1875 -0.1875 0.25 -0.484375q0.078125 -0.3125 0.078125 -0.671875q0 -0.34375 -0.078125 -0.640625q-0.078125 -0.296875 -0.265625 -0.484375q-0.18750095 -0.1875 -0.51562595 -0.1875q-0.328125 0 -0.515625 0.1875q-0.1875 0.171875 -0.28125 0.46875q-0.078125 0.296875 -0.078125 0.65625q0 0.359375 0.0625 0.671875q0.078125 0.296875 0.265625 0.484375q0.203125 0.171875 0.546875 0.171875zm0 -3.546875q0.296875 -0.015625 0.45312595 -0.1875q0.15625 -0.1875 0.21875 -0.453125q0.0625 -0.28125 0.0625 -0.59375q0 -0.4375 -0.15625 -0.75q-0.15625 -0.3125 -0.57812595 -0.3125q-0.421875 0 -0.59375 0.3125q-0.15625 0.3125 -0.15625 0.75q0 0.3125 0.0625 0.59375q0.0625 0.265625 0.21875 0.453125q0.171875 0.171875 0.46875 0.1875z" fill-rule="nonzero"/><path fill="#ffffff" d="m34.198116 53.700188l0 -1.015625l2.75 -4.28125q0.296875 -0.46875 0.5625 -0.875q0.265625 -0.421875 0.421875 -0.875q0.171875 -0.46875 0.171875 -1.0625q0 -0.75 -0.25 -1.171875q-0.234375 -0.4375 -0.828125 -0.4375q-0.515625 0 -0.796875 0.28125q-0.265625 0.28125 -0.375 0.734375q-0.109375 0.453125 -0.109375 0.96875l0 0.359375l-1.421875 0l0 -0.375q0 -0.96875 0.25 -1.65625q0.265625 -0.703125 0.84375 -1.09375q0.578125 -0.390625 1.546875 -0.390625q1.296875 0 1.9375 0.75q0.640625 0.734375 0.640625 2.03125q0 0.703125 -0.171875 1.21875q-0.15625 0.515625 -0.421875 0.96875q-0.265625 0.453125 -0.59375 0.9375l-2.484375 3.78125l3.421875 0l0 1.203125l-5.09375 0z" fill-rule="nonzero"/><path fill="#ffffff" d="m40.850185 48.700188l1.296875 -6.4375l-1.9375 0l0 -0.75l2.890625 0l0 0.453125l-1.34375 6.734375l-0.90625 0z" fill-rule="nonzero"/><path fill="#ffffff" d="m61.50572 53.700188l0 -1.015625l2.7499962 -4.28125q0.296875 -0.46875 0.5625 -0.875q0.265625 -0.421875 0.421875 -0.875q0.171875 -0.46875 0.171875 -1.0625q0 -0.75 -0.25 -1.171875q-0.234375 -0.4375 -0.828125 -0.4375q-0.5156212 0 -0.7968712 0.28125q-0.265625 0.28125 -0.375 0.734375q-0.109375 0.453125 -0.109375 0.96875l0 0.359375l-1.421875 0l0 -0.375q0 -0.96875 0.25 -1.65625q0.265625 -0.703125 0.84375 -1.09375q0.578125 -0.390625 1.5468712 -0.390625q1.296875 0 1.9375 0.75q0.640625 0.734375 0.640625 2.03125q0 0.703125 -0.171875 1.21875q-0.15625 0.515625 -0.421875 0.96875q-0.265625 0.453125 -0.59375 0.9375l-2.4843712 3.78125l3.4218712 0l0 1.203125l-5.093746 0z" fill-rule="nonzero"/><path fill="#ffffff" d="m69.61091 48.778313q-0.625 0 -1.015625 -0.3125q-0.390625 -0.3125 -0.578125 -0.84375q-0.171875 -0.546875 -0.171875 -1.203125l0 -2.421875q0 -0.703125 0.15625 -1.28125q0.15625 -0.578125 0.546875 -0.921875q0.390625 -0.34375 1.0625 -0.34375q0.5625 0 0.9375 0.203125q0.390625 0.203125 0.59375 0.59375q0.21875 0.390625 0.21875 0.953125q0 0.015625 0 0.046875q0.015625 0.03125 0.015625 0.0625l-0.953125 0q0 -0.53125 -0.171875 -0.796875q-0.171875 -0.28125 -0.640625 -0.28125q-0.25 0 -0.4375 0.171875q-0.1875 0.15625 -0.28125 0.5q-0.09375 0.328125 -0.09375 0.859375l0 1.09375q0.140625 -0.21875 0.390625 -0.359375q0.265625 -0.140625 0.65625 -0.140625q0.59375 0 0.921875 0.265625q0.34375 0.25 0.484375 0.71875q0.140625 0.46875 0.140625 1.09375q0 0.65625 -0.1875 1.1875q-0.171875 0.53125 -0.5625 0.84375q-0.390625 0.3125 -1.03125 0.3125zm0 -0.78125q0.3125 0 0.484375 -0.1875q0.1875 -0.1875 0.265625 -0.484375q0.078125 -0.296875 0.078125 -0.65625q0 -0.421875 -0.046875 -0.78125q-0.03125 -0.375 -0.203125 -0.59375q-0.171875 -0.21875 -0.578125 -0.21875q-0.203125 0 -0.359375 0.078125q-0.15625 0.0625 -0.28125 0.1875q-0.109375 0.109375 -0.171875 0.21875l0 1.078125q0 0.375 0.0625 0.6875q0.078125 0.296875 0.25 0.484375q0.1875 0.1875 0.5 0.1875z" fill-rule="nonzero"/><path fill="#ffffff" d="m93.69639 53.700188l0 -1.015625l2.75 -4.28125q0.296875 -0.46875 0.5625 -0.875q0.265625 -0.421875 0.421875 -0.875q0.171875 -0.46875 0.171875 -1.0625q0 -0.75 -0.25 -1.171875q-0.234375 -0.4375 -0.828125 -0.4375q-0.515625 0 -0.796875 0.28125q-0.265625 0.28125 -0.375 0.734375q-0.109375 0.453125 -0.109375 0.96875l0 0.359375l-1.421875 0l0 -0.375q0 -0.96875 0.25 -1.65625q0.265625 -0.703125 0.84375 -1.09375q0.578125 -0.390625 1.546875 -0.390625q1.296875 0 1.9375 0.75q0.640625 0.734375 0.640625 2.03125q0 0.703125 -0.171875 1.21875q-0.15625 0.515625 -0.421875 0.96875q-0.265625 0.453125 -0.59375 0.9375l-2.484375 3.78125l3.421875 0l0 1.203125l-5.09375 0z" fill-rule="nonzero"/><path fill="#ffffff" d="m101.67658 48.778313q-0.640625 0 -1.03125 -0.25q-0.375 -0.25 -0.546875 -0.71875q-0.15625 -0.46875 -0.15625 -1.125l0.9375 0q0 0.328125 0.046875 0.640625q0.0625 0.296875 0.234375 0.5q0.171875 0.1875 0.53125 0.1875q0.390625 0 0.5625 -0.21875q0.171875 -0.234375 0.203125 -0.609375q0.046875 -0.390625 0.046875 -0.875q0 -0.5 -0.046875 -0.828125q-0.046875 -0.34375 -0.21875 -0.53125q-0.171875 -0.1875 -0.53125 -0.1875q-0.296875 0 -0.5 0.1875q-0.203125 0.1875 -0.296875 0.40625l-0.8125 0l0 -3.84375l3.09375 0l0 0.953125l-2.234375 0l-0.0625 1.984375q0.171875 -0.1875 0.4375 -0.296875q0.265625 -0.109375 0.59375 -0.109375q0.59375 0 0.921875 0.28125q0.34375 0.28125 0.46875 0.765625q0.140625 0.46875 0.140625 1.09375q0 0.546875 -0.078125 1.03125q-0.078125 0.46875 -0.28125 0.828125q-0.203125 0.34375 -0.546875 0.546875q-0.34375 0.1875 -0.875 0.1875z" fill-rule="nonzero"/><path fill="#ffffff" d="m129.98029 53.700188l0 -1.015625l2.75 -4.28125q0.296875 -0.46875 0.5625 -0.875q0.265625 -0.421875 0.421875 -0.875q0.171875 -0.46875 0.171875 -1.0625q0 -0.75 -0.25 -1.171875q-0.234375 -0.4375 -0.828125 -0.4375q-0.515625 0 -0.796875 0.28125q-0.265625 0.28125 -0.375 0.734375q-0.109375 0.453125 -0.109375 0.96875l0 0.359375l-1.421875 0l0 -0.375q0 -0.96875 0.25 -1.65625q0.265625 -0.703125 0.84375 -1.09375q0.578125 -0.390625 1.546875 -0.390625q1.296875 0 1.9375 0.75q0.640625 0.734375 0.640625 2.03125q0 0.703125 -0.171875 1.21875q-0.15625 0.515625 -0.421875 0.96875q-0.265625 0.453125 -0.59375 0.9375l-2.484375 3.78125l3.421875 0l0 1.203125l-5.09375 0z" fill-rule="nonzero"/><path fill="#ffffff" d="m138.24173 48.700188l0 -1.921875l-2.078125 0l0 -1.0l1.875 -4.265625l1.109375 0l0 4.421875l0.8125 0l0 0.84375l-0.8125 0l0 1.921875l-0.90625 0zm-1.171875 -2.765625l1.171875 0l0 -3.265625l-1.171875 3.265625z" fill-rule="nonzero"/><path fill="#ffffff" d="m166.32188 53.700188l0 -1.015625l2.75 -4.28125q0.296875 -0.46875 0.5625 -0.875q0.265625 -0.421875 0.421875 -0.875q0.171875 -0.46875 0.171875 -1.0625q0 -0.75 -0.25 -1.171875q-0.234375 -0.4375 -0.828125 -0.4375q-0.515625 0 -0.796875 0.28125q-0.265625 0.28125 -0.375 0.734375q-0.109375 0.453125 -0.109375 0.96875l0 0.359375l-1.421875 0l0 -0.375q0 -0.96875 0.25 -1.65625q0.265625 -0.703125 0.84375 -1.09375q0.578125 -0.390625 1.546875 -0.390625q1.296875 0 1.9375 0.75q0.640625 0.734375 0.640625 2.03125q0 0.703125 -0.171875 1.21875q-0.15625 0.515625 -0.421875 0.96875q-0.265625 0.453125 -0.59375 0.9375l-2.484375 3.78125l3.421875 0l0 1.203125l-5.09375 0z" fill-rule="nonzero"/><path fill="#ffffff" d="m174.2552 48.778313q-0.578125 0 -0.96875 -0.21875q-0.390625 -0.21875 -0.59375 -0.640625q-0.1875 -0.421875 -0.1875 -0.984375l0 -0.234375l0.9375 0q0 0.03125 0 0.078125q0 0.03125 0 0.078125q0 0.3125 0.0625 0.578125q0.078125 0.25 0.25 0.40625q0.171875 0.15625 0.5 0.15625q0.34375 0 0.515625 -0.15625q0.1875 -0.171875 0.25 -0.46875q0.0625 -0.3125 0.0625 -0.703125q0 -0.5625 -0.21875 -0.921875q-0.203125 -0.359375 -0.71875 -0.40625q-0.03125 0 -0.078125 0q-0.03125 0 -0.0625 0l0 -0.953125q0.03125 0 0.0625 0q0.046875 0 0.0625 0q0.515625 -0.015625 0.734375 -0.265625q0.21875 -0.25 0.21875 -0.828125q0 -0.484375 -0.171875 -0.78125q-0.15625 -0.296875 -0.640625 -0.296875q-0.484375 0 -0.65625 0.328125q-0.15625 0.328125 -0.171875 0.828125q0 0.03125 0 0.078125q0 0.046875 0 0.078125l-0.9375 0l0 -0.234375q0 -0.578125 0.1875 -0.984375q0.203125 -0.421875 0.59375 -0.640625q0.390625 -0.21875 0.984375 -0.21875q0.59375 0 0.984375 0.21875q0.390625 0.21875 0.578125 0.640625q0.203125 0.40625 0.203125 0.984375q0 0.65625 -0.28125 1.046875q-0.28125 0.390625 -0.75 0.53125q0.328125 0.09375 0.546875 0.34375q0.234375 0.234375 0.359375 0.609375q0.125 0.359375 0.125 0.84375q0 0.640625 -0.1875 1.125q-0.171875 0.46875 -0.5625 0.734375q-0.390625 0.25 -1.03125 0.25z" fill-rule="nonzero"/><path fill="#ffffff" d="m202.6324 53.700188l0 -1.015625l2.75 -4.28125q0.296875 -0.46875 0.5625 -0.875q0.265625 -0.421875 0.421875 -0.875q0.171875 -0.46875 0.171875 -1.0625q0 -0.75 -0.25 -1.171875q-0.234375 -0.4375 -0.828125 -0.4375q-0.515625 0 -0.796875 0.28125q-0.265625 0.28125 -0.375 0.734375q-0.109375 0.453125 -0.109375 0.96875l0 0.359375l-1.421875 0l0 -0.375q0 -0.96875 0.25 -1.65625q0.265625 -0.703125 0.84375 -1.09375q0.578125 -0.390625 1.546875 -0.390625q1.296875 0 1.9375 0.75q0.640625 0.734375 0.640625 2.03125q0 0.703125 -0.171875 1.21875q-0.15625 0.515625 -0.421875 0.96875q-0.265625 0.453125 -0.59375 0.9375l-2.484375 3.78125l3.421875 0l0 1.203125l-5.09375 0z" fill-rule="nonzero"/><path fill="#ffffff" d="m208.81572 48.700188l0 -0.671875l1.828125 -2.84375q0.203125 -0.328125 0.375 -0.59375q0.1875 -0.28125 0.296875 -0.578125q0.109375 -0.3125 0.109375 -0.71875q0 -0.5 -0.171875 -0.78125q-0.15625 -0.28125 -0.546875 -0.28125q-0.34375 0 -0.53125 0.1875q-0.1875 0.1875 -0.265625 0.484375q-0.0625 0.296875 -0.0625 0.65625l0 0.234375l-0.953125 0l0 -0.25q0 -0.640625 0.171875 -1.109375q0.1875 -0.46875 0.5625 -0.71875q0.390625 -0.265625 1.03125 -0.265625q0.875 0 1.296875 0.5q0.421875 0.484375 0.421875 1.359375q0 0.453125 -0.109375 0.796875q-0.109375 0.34375 -0.296875 0.65625q-0.171875 0.296875 -0.375 0.625l-1.65625 2.515625l2.265625 0l0 0.796875l-3.390625 0z" fill-rule="nonzero"/><path fill="#ffffff" d="m239.31122 53.700188l0 -1.015625l2.75 -4.28125q0.296875 -0.46875 0.5625 -0.875q0.265625 -0.421875 0.421875 -0.875q0.171875 -0.46875 0.171875 -1.0625q0 -0.75 -0.25 -1.171875q-0.234375 -0.4375 -0.828125 -0.4375q-0.515625 0 -0.796875 0.28125q-0.265625 0.28125 -0.375 0.734375q-0.109375 0.453125 -0.109375 0.96875l0 0.359375l-1.421875 0l0 -0.375q0 -0.96875 0.25 -1.65625q0.265625 -0.703125 0.84375 -1.09375q0.578125 -0.390625 1.546875 -0.390625q1.296875 0 1.9375 0.75q0.640625 0.734375 0.640625 2.03125q0 0.703125 -0.171875 1.21875q-0.15625 0.515625 -0.421875 0.96875q-0.265625 0.453125 -0.59375 0.9375l-2.484375 3.78125l3.421875 0l0 1.203125l-5.09375 0z" fill-rule="nonzero"/><path fill="#ffffff" d="m246.65079 48.700188l0 -5.953125q0 0.015625 -0.203125 0.0625q-0.1875 0.046875 -0.4375 0.09375q-0.234375 0.03125 -0.421875 0.078125q-0.171875 0.03125 -0.1875 0.03125l0 -0.71875q0.15625 -0.03125 0.34375 -0.09375q0.203125 -0.0625 0.40625 -0.15625q0.21875 -0.09375 0.40625 -0.21875q0.1875 -0.140625 0.328125 -0.3125l0.71875 0l0 7.1875l-0.953125 0z" fill-rule="nonzero"/><path fill="#ffffff" d="m270.09976 53.700188l0 -1.015625l2.75 -4.28125q0.296875 -0.46875 0.5625 -0.875q0.265625 -0.421875 0.421875 -0.875q0.171875 -0.46875 0.171875 -1.0625q0 -0.75 -0.25 -1.171875q-0.234375 -0.4375 -0.828125 -0.4375q-0.515625 0 -0.796875 0.28125q-0.265625 0.28125 -0.375 0.734375q-0.109375 0.453125 -0.109375 0.96875l0 0.359375l-1.421875 0l0 -0.375q0 -0.96875 0.25 -1.65625q0.265625 -0.703125 0.84375 -1.09375q0.578125 -0.390625 1.546875 -0.390625q1.296875 0 1.9375 0.75q0.640625 0.734375 0.640625 2.03125q0 0.703125 -0.171875 1.21875q-0.15625 0.515625 -0.421875 0.96875q-0.265625 0.453125 -0.59375 0.9375l-2.484375 3.78125l3.421875 0l0 1.203125l-5.09375 0z" fill-rule="nonzero"/><path fill="#ffffff" d="m278.22058 48.778313q-0.609375 0 -1.015625 -0.265625q-0.390625 -0.28125 -0.578125 -0.75q-0.1875 -0.484375 -0.1875 -1.109375l0 -3.09375q0 -0.625 0.1875 -1.09375q0.1875 -0.484375 0.578125 -0.75q0.390625 -0.265625 1.015625 -0.265625q0.625 0 1.015625 0.265625q0.390625 0.265625 0.578125 0.75q0.1875 0.46875 0.1875 1.09375l0 3.09375q0 0.625 -0.203125 1.109375q-0.1875 0.46875 -0.578125 0.75q-0.390625 0.265625 -1.0 0.265625zm0 -0.78125q0.34375 0 0.515625 -0.1875q0.171875 -0.203125 0.234375 -0.5q0.0625 -0.3125 0.0625 -0.640625l0 -3.109375q0 -0.359375 -0.0625 -0.65625q-0.0625 -0.3125 -0.234375 -0.5q-0.171875 -0.1875 -0.515625 -0.1875q-0.34375 0 -0.53125 0.1875q-0.171875 0.1875 -0.234375 0.5q-0.0625 0.296875 -0.0625 0.65625l0 3.109375q0 0.328125 0.0625 0.640625q0.078125 0.296875 0.25 0.5q0.1875 0.1875 0.515625 0.1875z" fill-rule="nonzero"/><path fill="#000000" d="m11.857118 81.43116l0 -8.9375q-0.015625 0.015625 -0.3125 0.09375q-0.28125 0.0625 -0.640625 0.125q-0.359375 0.0625 -0.640625 0.125q-0.28125 0.046875 -0.28125 0.046875l0 -1.078125q0.21875 -0.046875 0.515625 -0.140625q0.296875 -0.09375 0.609375 -0.21875q0.328125 -0.140625 0.609375 -0.34375q0.28125 -0.203125 0.484375 -0.46875l1.078125 0l0 10.796875l-1.421875 0z" fill-rule="nonzero"/><path fill="#000000" d="m38.557293 81.55616q-0.921875 0 -1.515625 -0.40625q-0.59375 -0.421875 -0.890625 -1.140625q-0.28125 -0.71875 -0.28125 -1.640625l0 -4.65625q0 -0.9375 0.28125 -1.65625q0.28125 -0.71875 0.875 -1.109375q0.59375 -0.40625 1.53125 -0.40625q0.9375 0 1.515625 0.40625q0.59375 0.390625 0.875 1.109375q0.28125 0.71875 0.28125 1.65625l0 4.65625q0 0.9375 -0.296875 1.65625q-0.28125 0.71875 -0.875 1.125q-0.578125 0.40625 -1.5 0.40625zm0 -1.171875q0.5 0 0.765625 -0.296875q0.265625 -0.296875 0.359375 -0.75q0.09375 -0.46875 0.09375 -0.953125l0 -4.6875q0 -0.515625 -0.09375 -0.96875q-0.09375 -0.46875 -0.359375 -0.75q-0.25 -0.28125 -0.765625 -0.28125q-0.515625 0 -0.78125 0.28125q-0.265625 0.28125 -0.359375 0.75q-0.09375 0.453125 -0.09375 0.96875l0 4.6875q0 0.484375 0.09375 0.953125q0.09375 0.453125 0.359375 0.75q0.28125 0.296875 0.78125 0.296875z" fill-rule="nonzero"/><path fill="#000000" d="m66.38406 81.55616q-0.921875 0 -1.515625 -0.40625q-0.59375 -0.421875 -0.8906212 -1.140625q-0.28125 -0.71875 -0.28125 -1.640625l0 -4.65625q0 -0.9375 0.28125 -1.65625q0.2812462 -0.71875 0.8749962 -1.109375q0.59375 -0.40625 1.53125 -0.40625q0.9375 0 1.515625 0.40625q0.59375 0.390625 0.875 1.109375q0.28125 0.71875 0.28125 1.65625l0 4.65625q0 0.9375 -0.296875 1.65625q-0.28125 0.71875 -0.875 1.125q-0.578125 0.40625 -1.5 0.40625zm0 -1.171875q0.5 0 0.765625 -0.296875q0.265625 -0.296875 0.359375 -0.75q0.09375 -0.46875 0.09375 -0.953125l0 -4.6875q0 -0.515625 -0.09375 -0.96875q-0.09375 -0.46875 -0.359375 -0.75q-0.25 -0.28125 -0.765625 -0.28125q-0.515625 0 -0.78125 0.28125q-0.265625 0.28125 -0.359375 0.75q-0.09375 0.453125 -0.09375 0.96875l0 4.6875q0 0.484375 0.09375 0.953125q0.09375 0.453125 0.359375 0.75q0.28125 0.296875 0.78125 0.296875z" fill-rule="nonzero"/><path fill="#000000" d="m98.0894 81.43116l0 -8.9375q-0.015625 0.015625 -0.3125 0.09375q-0.28125 0.0625 -0.640625 0.125q-0.359375 0.0625 -0.640625 0.125q-0.28125 0.046875 -0.28125 0.046875l0 -1.078125q0.21875 -0.046875 0.515625 -0.140625q0.296875 -0.09375 0.609375 -0.21875q0.328125 -0.140625 0.609375 -0.34375q0.28125 -0.203125 0.484375 -0.46875l1.078125 0l0 10.796875l-1.421875 0z" fill-rule="nonzero"/><path fill="#000000" d="m134.40436 81.43116l0 -8.9375q-0.015625 0.015625 -0.3125 0.09375q-0.28125 0.0625 -0.640625 0.125q-0.359375 0.0625 -0.640625 0.125q-0.28125 0.046875 -0.28125 0.046875l0 -1.078125q0.21875 -0.046875 0.515625 -0.140625q0.296875 -0.09375 0.609375 -0.21875q0.328125 -0.140625 0.609375 -0.34375q0.28125 -0.203125 0.484375 -0.46875l1.078125 0l0 10.796875l-1.421875 0z" fill-rule="nonzero"/><path fill="#000000" d="m171.08485 81.55616q-0.921875 0 -1.515625 -0.40625q-0.59375 -0.421875 -0.890625 -1.140625q-0.28125 -0.71875 -0.28125 -1.640625l0 -4.65625q0 -0.9375 0.28125 -1.65625q0.28125 -0.71875 0.875 -1.109375q0.59375 -0.40625 1.53125 -0.40625q0.9375 0 1.515625 0.40625q0.59375 0.390625 0.875 1.109375q0.28125 0.71875 0.28125 1.65625l0 4.65625q0 0.9375 -0.296875 1.65625q-0.28125 0.71875 -0.875 1.125q-0.578125 0.40625 -1.5 0.40625zm0 -1.171875q0.5 0 0.765625 -0.296875q0.265625 -0.296875 0.359375 -0.75q0.09375 -0.46875 0.09375 -0.953125l0 -4.6875q0 -0.515625 -0.09375 -0.96875q-0.09375 -0.46875 -0.359375 -0.75q-0.25 -0.28125 -0.765625 -0.28125q-0.515625 0 -0.78125 0.28125q-0.265625 0.28125 -0.359375 0.75q-0.09375 0.453125 -0.09375 0.96875l0 4.6875q0 0.484375 0.09375 0.953125q0.09375 0.453125 0.359375 0.75q0.28125 0.296875 0.78125 0.296875z" fill-rule="nonzero"/><path fill="#000000" d="m207.39981 81.55616q-0.921875 0 -1.515625 -0.40625q-0.59375 -0.421875 -0.890625 -1.140625q-0.28125 -0.71875 -0.28125 -1.640625l0 -4.65625q0 -0.9375 0.28125 -1.65625q0.28125 -0.71875 0.875 -1.109375q0.59375 -0.40625 1.53125 -0.40625q0.9375 0 1.515625 0.40625q0.59375 0.390625 0.875 1.109375q0.28125 0.71875 0.28125 1.65625l0 4.65625q0 0.9375 -0.296875 1.65625q-0.28125 0.71875 -0.875 1.125q-0.578125 0.40625 -1.5 0.40625zm0 -1.171875q0.5 0 0.765625 -0.296875q0.265625 -0.296875 0.359375 -0.75q0.09375 -0.46875 0.09375 -0.953125l0 -4.6875q0 -0.515625 -0.09375 -0.96875q-0.09375 -0.46875 -0.359375 -0.75q-0.25 -0.28125 -0.765625 -0.28125q-0.515625 0 -0.78125 0.28125q-0.265625 0.28125 -0.359375 0.75q-0.09375 0.453125 -0.09375 0.96875l0 4.6875q0 0.484375 0.09375 0.953125q0.09375 0.453125 0.359375 0.75q0.28125 0.296875 0.78125 0.296875z" fill-rule="nonzero"/><path fill="#000000" d="m243.71478 81.55616q-0.921875 0 -1.515625 -0.40625q-0.59375 -0.421875 -0.890625 -1.140625q-0.28125 -0.71875 -0.28125 -1.640625l0 -4.65625q0 -0.9375 0.28125 -1.65625q0.28125 -0.71875 0.875 -1.109375q0.59375 -0.40625 1.53125 -0.40625q0.9375 0 1.515625 0.40625q0.59375 0.390625 0.875 1.109375q0.28125 0.71875 0.28125 1.65625l0 4.65625q0 0.9375 -0.296875 1.65625q-0.28125 0.71875 -0.875 1.125q-0.578125 0.40625 -1.5 0.40625zm0 -1.171875q0.5 0 0.765625 -0.296875q0.265625 -0.296875 0.359375 -0.75q0.09375 -0.46875 0.09375 -0.953125l0 -4.6875q0 -0.515625 -0.09375 -0.96875q-0.09375 -0.46875 -0.359375 -0.75q-0.25 -0.28125 -0.765625 -0.28125q-0.515625 0 -0.78125 0.28125q-0.265625 0.28125 -0.359375 0.75q-0.09375 0.453125 -0.09375 0.96875l0 4.6875q0 0.484375 0.09375 0.953125q0.09375 0.453125 0.359375 0.75q0.28125 0.296875 0.78125 0.296875z" fill-rule="nonzero"/><path fill="#000000" d="m274.6747 81.43116l0 -8.9375q-0.015625 0.015625 -0.3125 0.09375q-0.28125 0.0625 -0.640625 0.125q-0.359375 0.0625 -0.640625 0.125q-0.28125 0.046875 -0.28125 0.046875l0 -1.078125q0.21875 -0.046875 0.515625 -0.140625q0.296875 -0.09375 0.609375 -0.21875q0.328125 -0.140625 0.609375 -0.34375q0.28125 -0.203125 0.484375 -0.46875l1.078125 0l0 10.796875l-1.421875 0z" fill-rule="nonzero"/></g></svg>